<svg width="906" height="601" viewBox="0 0 906 601" fill="none" xmlns="http://www.w3.org/2000/svg">
<path d="M778.583 239.578C738.762 102.809 601.169 4.08043 439.664 0.12052C354.281 -1.97297 264.435 22.7612 199.02 109.315C82.0841 264.04 206.206 370.959 292.741 421.765C334.548 446.36 372.218 475.933 404.66 509.629C463.112 570.213 575.559 645.498 709.478 527.538C806.543 442.041 805.108 330.68 778.583 239.578Z" fill="#463131"/>
<path opacity="0.1" d="M599.226 369.05L681.165 297.698L599.226 226.345L624.207 204.598L731.129 297.698L624.207 390.798L599.226 369.05Z" fill="black"/>
<path opacity="0.1" d="M365.231 302.789H398.54V273.695H365.231V302.789ZM532.442 273.695H499.133V302.789H532.442V273.695ZM432.182 302.789H465.491V273.695H432.182V302.789Z" fill="#63FF7C"/>
<path opacity="0.1" d="M320.098 368.323L238.075 296.97L320.015 225.618L295.033 203.87L188.195 296.97L295.116 390.07L320.098 368.323Z" fill="black"/>
<path d="M906 547.176C906 559.228 703.185 601 453 601C202.815 601 0 559.228 0 547.176C0 535.125 202.815 557.359 453 557.359C703.185 557.359 906 535.125 906 547.176Z" fill="#463131"/>
<path d="M526.859 442.191C526.859 488.753 560.301 526.43 601.63 526.43Z" fill="#FFAE63"/>
<path d="M601.63 526.43C601.63 479.345 638.949 441.245 685.069 441.245Z" fill="#575A89"/>
<path d="M553.95 446.412C553.95 490.641 575.275 526.43 601.63 526.43Z" fill="#63F6FF"/>
<path d="M601.63 526.43C601.63 466.266 644.765 417.582 698.073 417.582Z" fill="#63FF7C"/>
<path d="M585.9 527.024C585.9 527.024 596.504 526.739 599.699 524.751C602.895 522.764 616.01 520.39 616.803 523.578C617.596 526.766 632.739 539.432 620.767 539.517C608.795 539.601 592.951 537.888 589.761 536.191C586.571 534.494 585.9 527.024 585.9 527.024Z" fill="#A8A8A8"/>
<path opacity="0.2" d="M620.981 538.407C609.009 538.491 593.164 536.778 589.975 535.081C587.546 533.789 586.578 529.152 586.254 527.012C586.03 527.021 585.9 527.024 585.9 527.024C585.9 527.024 586.571 534.494 589.761 536.191C592.951 537.888 608.796 539.601 620.767 539.517C624.223 539.492 625.416 538.418 625.351 536.828C624.871 537.789 623.553 538.389 620.981 538.407Z" fill="black"/>
<path d="M720.747 278.466C720.747 278.466 695.109 261.463 693.163 267.696C691.217 273.928 711.975 288.093 711.975 288.093L720.747 278.466Z" fill="#FFB9B9"/>
<path opacity="0.1" d="M720.747 278.466C720.747 278.466 695.109 261.463 693.163 267.696C691.217 273.928 711.975 288.093 711.975 288.093L720.747 278.466Z" fill="black"/>
<path d="M805.385 224.635C805.385 224.635 774.897 272.228 774.248 279.028C773.599 285.827 773.599 286.393 771.004 285.827C768.41 285.26 732.732 281.861 729.489 282.994C726.246 284.127 719.759 276.195 719.759 276.195C719.759 276.195 707.434 286.96 710.029 289.226C712.623 291.493 720.407 292.626 721.705 295.459C723.002 298.292 724.948 301.125 730.786 300.558C736.624 299.992 776.194 309.624 781.383 307.924C786.573 306.224 787.87 303.391 790.465 303.391C793.06 303.391 798.249 301.125 798.249 300.558C798.249 299.992 816.412 269.962 816.412 269.962C816.412 269.962 837.819 229.167 805.385 224.635Z" fill="#E9FFB9"/>
<path opacity="0.1" d="M805.385 224.635C805.385 224.635 774.897 272.228 774.248 279.028C773.599 285.827 773.599 286.393 771.004 285.827C768.41 285.26 732.732 281.861 729.489 282.994C726.246 284.127 719.759 276.195 719.759 276.195C719.759 276.195 707.434 286.96 710.029 289.226C712.623 291.493 720.407 292.626 721.705 295.459C723.002 298.292 724.948 301.125 730.786 300.558C736.624 299.992 776.194 309.624 781.383 307.924C786.573 306.224 787.87 303.391 790.465 303.391C793.06 303.391 798.249 301.125 798.249 300.558C798.249 299.992 816.412 269.962 816.412 269.962C816.412 269.962 837.819 229.167 805.385 224.635Z" fill="black"/>
<path d="M761.151 193.258C760.875 196.267 760.931 199.292 761.318 202.292C762.303 208.801 765.734 215.587 762.493 221.663C761.317 223.869 759.324 225.791 758.238 228.023C755.941 232.748 758.024 237.989 757.711 243.018C757.308 249.514 752.577 255.774 745.382 259.334C757.675 259.667 769.367 254.358 777.103 247.123C784.838 239.889 789.146 230.915 792.375 221.937C794.035 217.721 795.099 213.343 795.544 208.901C795.802 206.35 795.459 203.779 794.538 201.347C793.401 198.971 791.905 196.74 790.089 194.711C788.152 192.333 786.162 189.907 783.304 188.137C779.784 185.957 772.997 183.769 768.328 184.086C762.6 184.475 761.392 189.786 761.151 193.258Z" fill="#2F2E41"/>
<path d="M780.086 211.036C780.086 211.036 787.221 233.133 781.383 239.366C775.545 245.599 816.412 236.533 816.412 236.533C816.412 236.533 796.303 218.969 806.033 207.637L780.086 211.036Z" fill="#FFB9B9"/>
<path opacity="0.1" d="M780.086 211.036C780.086 211.036 787.221 233.133 781.383 239.366C775.545 245.599 816.412 236.533 816.412 236.533C816.412 236.533 796.303 218.969 806.033 207.637L780.086 211.036Z" fill="#FFB9B9"/>
<path d="M599.226 355.231L681.165 283.878L599.226 212.526L624.207 190.778L731.129 283.878L624.207 376.978L599.226 355.231Z" fill="#FF6E4E"/>
<path d="M756.733 505.665V522.097L766.464 532.295L774.896 528.895L772.302 505.098L756.733 505.665Z" fill="#FFB9B9"/>
<path d="M760.626 520.963C760.626 520.963 758.031 513.031 753.49 518.697C748.949 524.362 744.409 536.828 741.814 537.394C739.219 537.961 721.056 555.525 739.219 555.525C757.382 555.525 763.22 548.159 763.22 548.159C763.22 548.159 781.383 541.927 781.383 540.794C781.383 539.66 778.789 518.697 777.491 518.697C776.194 518.697 775.545 522.663 772.302 522.663C769.058 522.663 760.626 520.963 760.626 520.963Z" fill="#2F2E41"/>
<path d="M800.195 508.498L799.547 523.796L815.114 529.462V507.365L800.195 508.498Z" fill="#FFB9B9"/>
<path d="M817.061 523.796C817.061 523.796 808.628 515.864 804.087 517.563C801.841 518.353 799.671 519.3 797.6 520.396C797.6 520.396 795.006 527.762 793.708 533.995C792.411 540.227 791.762 543.06 790.465 545.326C789.168 547.593 787.87 556.092 800.844 557.225C813.817 558.358 817.709 552.126 817.709 552.126L820.953 537.394C820.953 537.394 819.656 523.796 817.061 523.796Z" fill="#2F2E41"/>
<path d="M765.166 345.319C765.166 345.319 746.355 382.148 748.949 415.577C748.949 415.577 742.463 428.608 746.355 449.006C750.247 469.403 755.436 510.198 755.436 510.198C755.436 510.198 772.951 511.898 774.248 509.065C774.248 509.065 775.545 480.735 776.843 479.602C778.14 478.468 776.194 452.405 774.248 447.306C772.302 442.206 792.411 391.78 792.411 391.78L787.221 328.888L765.166 345.319Z" fill="#2F2E41"/>
<path opacity="0.1" d="M765.166 345.319C765.166 345.319 746.355 382.148 748.949 415.577C748.949 415.577 742.463 428.608 746.355 449.006C750.247 469.403 755.436 510.198 755.436 510.198C755.436 510.198 772.951 511.898 774.248 509.065C774.248 509.065 775.545 480.735 776.843 479.602C778.14 478.468 776.194 452.405 774.248 447.306C772.302 442.206 792.411 391.78 792.411 391.78L787.221 328.888L765.166 345.319Z" fill="black"/>
<path d="M759.977 343.053L772.302 366.283C772.302 366.283 778.14 418.976 781.383 425.775C781.383 425.775 782.681 445.039 788.519 451.272C794.357 457.505 798.898 512.464 798.898 512.464C798.898 512.464 815.115 516.43 816.412 512.464C817.709 508.498 821.602 481.301 821.602 481.301C821.602 481.301 822.899 458.071 815.763 442.773C808.628 427.475 824.196 372.515 824.196 372.515C824.196 372.515 840.413 345.886 817.061 324.355L759.977 343.053Z" fill="#2F2E41"/>
<path d="M794.357 217.835C809.046 217.835 820.953 207.435 820.953 194.605C820.953 181.775 809.046 171.375 794.357 171.375C779.668 171.375 767.761 181.775 767.761 194.605C767.761 207.435 779.668 217.835 794.357 217.835Z" fill="#FFB9B9"/>
<path d="M819.007 229.734C819.007 229.734 791.114 229.734 787.222 232.567C786.259 233.367 784.982 233.813 783.654 233.813C782.326 233.813 781.048 233.367 780.086 232.567C780.086 232.567 770.356 233.134 767.761 239.933C765.166 246.732 757.382 255.797 757.382 255.797C757.382 255.797 745.706 263.163 752.193 282.427C758.68 301.691 753.49 332.854 753.49 332.854C753.49 332.854 748.301 339.653 753.49 342.486C758.68 345.319 760.626 346.452 759.977 348.719C759.328 350.985 819.007 330.021 819.007 326.055C819.007 322.089 817.709 318.689 819.007 316.989C820.304 315.29 821.602 312.457 820.304 309.624C819.007 306.791 821.602 306.224 820.953 303.391C820.304 300.558 824.196 279.594 826.791 270.529C829.386 261.463 828.737 230.301 819.007 229.734Z" fill="#E9FFB9"/>
<path d="M720.747 285.265C720.747 285.265 695.109 268.262 693.163 274.495C691.217 280.727 711.975 294.892 711.975 294.892L720.747 285.265Z" fill="#FFB9B9"/>
<path d="M805.385 232.567C805.385 232.567 774.897 280.161 774.248 286.96C773.599 293.759 773.599 294.326 771.004 293.759C768.41 293.192 732.732 289.793 729.489 290.926C726.246 292.059 719.759 284.127 719.759 284.127C719.759 284.127 707.434 294.892 710.029 297.159C712.623 299.425 720.407 300.558 721.705 303.391C723.002 306.224 724.948 309.057 730.786 308.49C736.624 307.924 776.194 317.556 781.383 315.856C786.573 314.156 787.87 311.323 790.465 311.323C793.06 311.323 798.249 309.057 798.249 308.49C798.249 307.924 816.412 277.894 816.412 277.894C816.412 277.894 837.819 237.1 805.385 232.567Z" fill="#E9FFB9"/>
<path d="M781.187 209.447C780.818 207.146 779.469 205.059 778.777 202.816C778.236 201.02 778.116 199.148 778.424 197.311C778.732 195.474 779.463 193.711 780.572 192.127C784.386 186.745 791.876 184.362 797.1 179.974C797.208 182.209 798.983 184.119 800.946 185.556C802.908 186.993 805.159 188.159 806.82 189.862C808.417 191.657 809.58 193.717 810.242 195.916C811.266 198.464 811.724 201.158 811.594 203.856C811.519 205.204 811.131 206.525 810.454 207.738C809.777 208.951 808.824 210.031 807.654 210.913C805.709 212.256 802.99 213.023 802.05 215.027C801.681 216.029 801.574 217.09 801.738 218.133C802.183 224.366 802.599 230.711 800.919 236.782C799.238 242.853 795.121 248.718 788.668 251.409C793.971 251.738 799.386 252.058 804.531 250.889C809.675 249.72 814.596 246.776 816.37 242.398C817.245 240.239 817.327 237.837 818.571 235.82C821.717 230.716 830.407 230.483 834.675 226.043C836.384 224.266 837.21 221.977 837.822 219.719C841.427 206.434 838.894 192.328 833.408 179.544C831.516 175.138 829.162 170.701 825.106 167.605C821.654 164.969 817.246 163.517 812.887 162.277C806.525 160.468 799.972 158.985 793.285 158.794C790.38 158.645 787.467 158.942 784.68 159.671C781.928 160.54 779.367 161.814 777.109 163.438C766.634 170.558 759.502 181.936 760.448 193.499C761.021 200.496 764.415 207.118 768.775 213.009C770.3 215.069 773.903 219.462 777.252 218.167C780.29 216.992 781.585 211.932 781.187 209.447Z" fill="#2F2E41"/>
<path d="M365.231 288.969H398.54V259.876H365.231V288.969ZM532.442 259.876H499.133V288.969H532.442V259.876ZM432.182 288.969H465.491V259.876H432.182V288.969Z" fill="#FFEF61"/>
<path d="M171.712 173.174C187.191 173.174 199.739 164.625 199.739 154.08C199.739 143.534 187.191 134.985 171.712 134.985C156.233 134.985 143.685 143.534 143.685 154.08C143.685 164.625 156.233 173.174 171.712 173.174Z" fill="#2F2E41"/>
<path d="M176.476 285.538C176.476 285.538 201.701 287.007 206.185 284.069C210.669 281.132 229.727 287.986 231.409 291.903C233.091 295.82 204.503 296.309 200.019 296.309C195.535 296.309 174.234 302.185 174.234 302.185L176.476 285.538Z" fill="#FFB9B9"/>
<path d="M124.535 513.606C124.535 513.606 112.78 539.499 118.913 542.624C125.046 545.749 189.446 543.517 189.446 543.517C189.446 543.517 200.179 537.713 187.913 533.695C187.913 533.695 177.69 533.249 171.046 529.677C164.402 526.106 156.735 519.409 156.735 519.409C156.735 519.409 156.224 509.588 152.135 511.82C150.912 512.524 149.871 513.444 149.078 514.52C148.286 515.596 147.76 516.806 147.535 518.07L124.535 513.606Z" fill="black"/>
<path opacity="0.1" d="M124.535 513.606C124.535 513.606 112.78 539.499 118.913 542.624C125.046 545.749 189.446 543.517 189.446 543.517C189.446 543.517 200.179 537.713 187.913 533.695C187.913 533.695 177.69 533.249 171.046 529.677C164.402 526.106 156.735 519.409 156.735 519.409C156.735 519.409 156.224 509.588 152.135 511.82C150.912 512.524 149.871 513.444 149.078 514.52C148.286 515.596 147.76 516.806 147.535 518.07L124.535 513.606Z" fill="#E9FFB9"/>
<path d="M320.098 354.503L238.075 283.151L320.015 211.798L295.033 190.051L188.195 283.151L295.116 376.251L320.098 354.503Z" fill="#FF6E4E"/>
<path d="M106.409 521.527C106.409 521.527 93.5171 549.924 100.244 553.351C106.97 556.778 177.597 554.33 177.597 554.33C177.597 554.33 189.369 547.965 175.916 543.559C175.916 543.559 164.705 543.069 157.418 539.153C150.131 535.236 141.723 527.892 141.723 527.892C141.723 527.892 141.163 517.12 136.678 519.568C135.337 520.34 134.195 521.349 133.326 522.53C132.457 523.71 131.881 525.036 131.634 526.423L106.409 521.527Z" fill="black"/>
<path d="M172.553 341.353L164.705 403.043C164.705 403.043 161.902 432.419 153.494 438.784C153.494 438.784 153.494 448.086 150.692 451.024L146.768 489.703C146.768 489.703 152.373 503.901 151.813 506.349C151.252 508.797 154.055 516.631 153.494 517.61C152.934 518.589 126.589 517.61 126.589 517.61L132.194 438.784L149.571 329.113L172.553 341.353Z" fill="#2F2E41"/>
<path opacity="0.1" d="M172.553 341.353L164.705 403.043C164.705 403.043 161.902 432.419 153.494 438.784C153.494 438.784 153.494 448.086 150.692 451.024L146.768 489.703C146.768 489.703 152.373 503.901 151.813 506.349C151.252 508.797 154.055 516.631 153.494 517.61C152.934 518.589 126.589 517.61 126.589 517.61L132.194 438.784L149.571 329.113L172.553 341.353Z" fill="black"/>
<path d="M158.539 339.395C158.539 339.395 152.373 389.824 149.571 400.595C147.809 407.688 146.684 414.891 146.207 422.137C146.207 422.137 145.647 437.805 140.602 442.211C139.126 443.488 137.966 445.016 137.195 446.7C136.424 448.385 136.057 450.19 136.118 452.003C136.118 452.003 131.073 501.453 133.876 507.328C136.678 513.204 139.481 518.1 136.678 522.016C133.876 525.933 103.046 525.933 103.046 522.996C103.046 520.058 103.046 517.61 101.365 516.141C99.683 514.672 101.365 505.37 101.365 505.37C101.365 505.37 94.6382 461.795 100.804 449.066C106.97 436.336 109.773 401.574 109.773 401.574C109.773 401.574 105.288 361.916 99.683 355.551C94.0777 349.187 100.804 326.665 100.804 326.665L158.539 339.395Z" fill="#2F2E41"/>
<path d="M142.758 182.79C143.41 184.087 144.969 184.809 146.389 185.492C154.619 189.452 161.508 195.194 168.295 200.869C166.601 195.857 166.962 190.485 169.315 185.679C170.126 184.04 171.188 182.278 170.609 180.566C170.183 179.307 168.955 178.399 167.766 177.596C164.997 175.725 162.102 174 159.098 172.43C156.999 171.333 152.684 168.414 150.275 168.731C150.149 171.574 150.083 174.115 148.658 176.772C148.32 177.402 143.007 183.286 142.758 182.79Z" fill="#FFB9B9"/>
<path d="M171.432 189.086C184.124 189.086 194.414 180.099 194.414 169.013C194.414 157.926 184.124 148.939 171.432 148.939C158.739 148.939 148.45 157.926 148.45 169.013C148.45 180.099 158.739 189.086 171.432 189.086Z" fill="#FFB9B9"/>
<path d="M172.553 216.504C172.553 216.504 176.476 199.368 165.266 193.493C154.055 187.618 141.163 180.763 141.163 180.763C141.163 180.763 137.239 180.273 135.557 187.617C135.557 187.617 103.607 193.003 100.244 219.442C96.8803 245.88 102.486 284.559 102.486 284.559C102.486 284.559 97.4409 318.342 91.275 336.457C91.275 336.457 86.2302 340.374 108.652 334.498C131.073 328.623 170.311 351.145 170.311 351.145C170.311 351.145 174.234 347.718 174.234 345.27C174.234 342.822 178.719 328.623 178.719 328.623C178.719 328.623 182.642 268.402 184.324 261.548C186.006 254.693 177.598 217.483 172.553 216.504Z" fill="#E9FFB9"/>
<path d="M166.015 171.081C167.396 170.412 168.944 170.052 170.523 170.032C172.103 170.011 173.646 169.61 174.981 168.872C177.152 167.416 177.311 164.603 178.9 162.656C181.199 159.837 185.786 159.498 189.745 159.639C192.166 159.725 194.774 159.851 196.813 158.707C198.907 157.533 199.856 155.32 200.561 153.236C201.396 150.772 201.936 147.758 199.868 145.931C198.431 144.662 196.164 144.411 194.568 143.296C192.914 142.14 192.233 140.26 191.334 138.584C190.311 136.543 188.692 134.772 186.64 133.448C183.63 131.622 179.785 131.212 176.12 131.246C172.455 131.28 168.775 131.701 165.137 131.308C162.157 130.987 159.185 130.121 156.215 130.504C152.429 130.994 149.298 133.488 147.432 136.406C145.567 139.325 144.767 142.656 143.991 145.929L141.88 154.83C141.225 157.591 140.568 160.425 141.073 163.21C142.121 168.982 147.966 173.571 148.368 179.405C148.752 177.794 149.588 176.291 150.801 175.032C152.013 173.773 153.565 172.796 155.316 172.189C155.755 172.002 156.254 171.949 156.731 172.039C157.312 172.201 157.651 172.708 158.018 173.134C158.978 174.249 161.994 175.94 163.704 175.149C165.234 174.442 164.092 172.22 166.015 171.081Z" fill="#2F2E41"/>
<path d="M108.091 262.527C108.091 262.527 104.167 284.069 120.423 282.111C120.423 282.111 128.831 281.132 129.952 282.111C131.073 283.09 172.553 276.725 178.158 271.34C178.158 271.34 184.884 269.381 188.248 272.319C191.611 275.256 225.243 278.194 215.153 269.381C205.064 260.568 189.369 258.61 189.369 258.61L168.068 259.589C168.068 259.589 156.858 262.527 150.131 259.589C143.405 256.652 124.347 257.631 124.347 257.631L108.091 262.527Z" fill="#FFCCCC"/>
<path d="M131.073 194.472C131.073 194.472 105.849 196.92 105.849 228.744V269.381C105.849 269.381 119.862 263.996 122.665 264.485C125.468 264.975 136.678 258.12 136.678 258.12C136.678 258.12 149.571 231.682 148.45 224.338C147.329 216.994 147.889 195.451 131.073 194.472Z" fill="#575A89"/>
<path d="M171.432 166.32C183.35 166.32 193.012 161.936 193.012 156.528C193.012 151.12 183.35 146.736 171.432 146.736C159.513 146.736 149.851 151.12 149.851 156.528C149.851 161.936 159.513 166.32 171.432 166.32Z" fill="#2F2E41"/>
<path d="M151.252 174.643C155.432 174.643 158.82 167.3 158.82 158.241C158.82 149.183 155.432 141.84 151.252 141.84C147.073 141.84 143.685 149.183 143.685 158.241C143.685 167.3 147.073 174.643 151.252 174.643Z" fill="#2F2E41"/>
</svg>
